<svg width="24" height="24" viewBox="0 0 24 24" fill="none" xmlns="http://www.w3.org/2000/svg">
<path d="M12.0012 3.9978C9.04217 3.9978 6.54917 5.45182 4.50117 7.84182C3.80117 8.65882 3.18716 9.5318 2.68915 10.4038C2.38715 10.9308 2.20316 11.3398 2.09516 11.5918C1.98716 11.8428 1.98716 12.1528 2.09516 12.4038C2.20316 12.6558 2.38715 13.0638 2.68915 13.5918C3.18716 14.4638 3.80117 15.3368 4.50117 16.1538C4.80217 16.5048 5.12916 16.8538 5.45216 17.1618L4.33115 18.2738C3.94115 18.6638 3.92016 19.3068 4.31016 19.6968C4.70116 20.0878 5.32916 20.1068 5.72016 19.7168L10.5952 14.8098L14.8452 10.5918L19.7202 5.71682C20.1102 5.32582 20.1102 4.66981 19.7202 4.27881C19.5252 4.08381 19.2572 3.9978 19.0012 3.9978C18.7452 3.9978 18.4792 4.12083 18.2832 4.31583L17.0302 5.58581C15.5372 4.59181 13.7992 3.9978 12.0012 3.9978ZM12.0012 5.9978C13.2502 5.9978 14.4842 6.37581 15.5692 7.02581L14.0562 8.56081C13.4582 8.21581 12.7132 7.9978 12.0012 7.9978C9.79217 7.9978 8.00117 9.78879 8.00117 11.9978C8.00117 12.7148 8.23616 13.4418 8.58216 14.0388L6.85316 15.7338C6.55816 15.4558 6.27017 15.1548 6.00117 14.8418C5.38917 14.1278 4.87816 13.3598 4.43916 12.5918C4.28416 12.3208 4.21717 12.1808 4.12617 11.9978C4.21717 11.8138 4.28416 11.6748 4.43916 11.4038C4.87816 10.6358 5.38917 9.8678 6.00117 9.1538C7.70317 7.1688 9.71017 5.9978 12.0012 5.9978ZM19.9392 8.84182C19.6872 8.79382 19.4172 8.84179 19.1892 8.99779C18.7322 9.30879 18.6272 9.91679 18.9392 10.3728C19.2782 10.8708 19.5722 11.3818 19.8142 11.8418C19.8522 11.9138 19.8452 11.9368 19.8762 11.9978C19.7852 12.1808 19.7182 12.3208 19.5642 12.5918C19.1242 13.3598 18.6132 14.1278 18.0012 14.8418C16.2992 16.8268 14.2922 17.9978 12.0012 17.9978C11.7532 17.9978 11.2272 17.9488 10.7202 17.8728C10.1742 17.7908 9.67717 18.1698 9.59517 18.7168C9.51317 19.2628 9.89216 19.7598 10.4392 19.8418C11.0452 19.9328 11.6202 19.9978 12.0012 19.9978C14.9602 19.9978 17.4532 18.5438 19.5012 16.1538C20.2022 15.3368 20.8152 14.4638 21.3142 13.5918C21.6152 13.0638 21.7992 12.6558 21.9072 12.4038C22.0152 12.1528 22.0152 11.8428 21.9072 11.5918C21.6772 11.0538 21.2552 10.2168 20.5952 9.24779C20.4392 9.01979 20.1902 8.88882 19.9392 8.84182ZM12.0012 9.99779C12.1552 9.99779 12.4022 10.0308 12.5472 10.0648L10.0832 12.5158C10.0022 12.2938 10.0012 12.1508 10.0012 11.9978C10.0012 10.8928 10.8972 9.99779 12.0012 9.99779Z" fill="#91A2B2"/>
</svg>
