<svg width="20" height="20" viewBox="0 0 20 20" fill="none" xmlns="http://www.w3.org/2000/svg">
<path d="M10.0007 3.33154C7.5349 3.33154 5.4574 4.5432 3.75073 6.53487C3.16656 7.2157 2.65573 7.94321 2.23989 8.66987C1.98906 9.10987 1.83572 9.44986 1.74572 9.65986C1.65572 9.86903 1.65572 10.1274 1.74572 10.3365C1.83572 10.5465 1.98906 10.8865 2.23989 11.3265C2.65573 12.0532 3.16656 12.7807 3.75073 13.4615C5.4574 15.4532 7.5349 16.6649 10.0007 16.6649C12.4666 16.6649 14.5441 15.4532 16.2507 13.4615C16.8341 12.7807 17.3458 12.0532 17.7608 11.3265C18.0124 10.8865 18.1657 10.5465 18.2557 10.3365C18.3457 10.1274 18.3457 9.86903 18.2557 9.65986C18.1657 9.44986 18.0124 9.10987 17.7608 8.66987C17.3458 7.94321 16.8341 7.2157 16.2507 6.53487C14.5441 4.5432 12.4666 3.33154 10.0007 3.33154ZM10.0007 4.99821C11.9099 4.99821 13.5824 5.97404 15.0007 7.62821C15.5107 8.22321 15.9366 8.8632 16.3024 9.5032C16.4316 9.72904 16.4874 9.8457 16.5632 9.9982C16.4874 10.1507 16.4316 10.2674 16.3024 10.4932C15.9366 11.1332 15.5107 11.7732 15.0007 12.3682C13.5824 14.0224 11.9099 14.9982 10.0007 14.9982C8.09157 14.9982 6.41907 14.0224 5.00073 12.3682C4.49073 11.7732 4.06489 11.1332 3.69823 10.4932C3.56989 10.2674 3.51406 10.1507 3.43823 9.9982C3.51406 9.8457 3.56989 9.72904 3.69823 9.5032C4.06489 8.8632 4.49073 8.22321 5.00073 7.62821C6.41907 5.97404 8.09157 4.99821 10.0007 4.99821ZM10.0007 6.66487C8.1599 6.66487 6.6674 8.15737 6.6674 9.9982C6.6674 11.839 8.1599 13.3315 10.0007 13.3315C11.8416 13.3315 13.3341 11.839 13.3341 9.9982C13.3341 9.5382 12.9607 9.16487 12.5007 9.16487C12.0407 9.16487 11.6674 9.5382 11.6674 9.9982C11.6674 10.919 10.9207 11.6649 10.0007 11.6649C9.0799 11.6649 8.33407 10.919 8.33407 9.9982C8.33407 9.07736 9.0799 8.33153 10.0007 8.33153C10.2049 8.33153 10.4141 8.3657 10.5999 8.4357C11.0299 8.5982 11.5049 8.37154 11.6674 7.94071C11.8299 7.51071 11.6032 7.0357 11.1724 6.8732C10.7991 6.73237 10.4066 6.66487 10.0007 6.66487Z" fill="#91A2B2"/>
</svg>
